<svg width="18" height="19" viewBox="0 0 18 19" fill="none" xmlns="http://www.w3.org/2000/svg">
<path d="M14.8231 10.3875C14.8137 10.3724 14.8007 10.3599 14.7853 10.3509C14.7699 10.342 14.7525 10.3369 14.7347 10.3362C14.7169 10.3355 14.6993 10.3391 14.6832 10.3467C14.6671 10.3544 14.6531 10.3659 14.6425 10.3802C13.9623 11.288 13.2168 12.1449 12.4119 12.944C11.6412 13.7124 10.8182 14.4263 9.94859 15.0804C9.93432 15.091 9.92286 15.1049 9.91519 15.121C9.90753 15.137 9.90391 15.1547 9.90463 15.1725C9.90536 15.1903 9.91042 15.2076 9.91936 15.223C9.92831 15.2383 9.94088 15.2513 9.95597 15.2607C12.5636 16.9132 14.9153 17.4466 15.9621 16.3998C17.0089 15.3529 16.4734 12.9978 14.8231 10.3875Z" fill="#EFCD52"/>
<path d="M12.4877 6.0278C13.2663 6.80195 13.9896 7.62979 14.6525 8.50523C14.6622 8.51815 14.6749 8.52853 14.6895 8.53548C14.7041 8.54242 14.7201 8.54572 14.7363 8.5451C14.7524 8.54448 14.7682 8.53995 14.7822 8.53191C14.7962 8.52386 14.8081 8.51254 14.8168 8.4989C16.4734 5.88548 17.01 3.52666 15.9621 2.47771C14.9142 1.42876 12.5393 1.96905 9.91753 3.64052C9.90375 3.64933 9.89234 3.66137 9.88426 3.67559C9.87618 3.68982 9.87169 3.7058 9.87117 3.72215C9.87065 3.7385 9.87413 3.75473 9.88128 3.76944C9.88844 3.78415 9.89907 3.79689 9.91226 3.80656C10.8232 4.48375 11.684 5.2261 12.4877 6.0278Z" fill="#26B2BF" fill-opacity="0.9"/>
<path d="M3.7149 9.01442C4.24147 9.01125 13.7198 9.01442 13.7198 9.01442C13.7198 9.01442 13.8599 8.97963 13.7656 8.82518C13.1714 8.06043 12.5284 7.33501 11.8405 6.65349C10.9738 5.78601 10.0403 4.98813 9.04858 4.26725C6.98914 2.78449 5.00764 1.93848 3.58905 1.93848C2.94768 1.93848 2.4211 2.11137 2.0546 2.47666C0.936158 3.58992 1.55804 6.09949 3.48162 8.90741C3.50885 8.94293 3.54434 8.97125 3.58499 8.9899C3.62565 9.00855 3.67025 9.01696 3.7149 9.01442Z" fill="#59336D"/>
<path d="M3.54754 9.95215C1.61237 12.7674 0.985221 15.2844 2.10683 16.4008C2.47543 16.7656 3.00201 16.9385 3.64127 16.9385C5.05986 16.9385 7.04084 16.0951 9.0987 14.6097C10.0922 13.8892 11.0273 13.0913 11.8953 12.2235C12.595 11.5261 13.2502 10.7852 13.8568 10.0054L13.8616 9.99906C13.9021 9.95215 13.8979 9.81931 13.7826 9.81931L3.77765 9.82406C3.7316 9.82418 3.68634 9.836 3.6461 9.8584C3.60585 9.8808 3.57194 9.91306 3.54754 9.95215Z" fill="#DA5E48"/>
</svg>
