<svg width="64" height="65" viewBox="0 0 64 65" fill="none" xmlns="http://www.w3.org/2000/svg">
<path d="M56.8517 36.2357C56.8118 36.1714 56.7565 36.1179 56.6909 36.0801C56.6253 36.0423 56.5514 36.0213 56.4757 36.019C56.4 36.0167 56.325 36.0332 56.2572 36.0671C56.1895 36.1009 56.1311 36.1509 56.0875 36.2128C53.1891 40.1023 50.005 43.7704 46.5616 47.1868C43.2761 50.4799 39.7615 53.536 36.0442 56.3325C35.9947 56.3683 35.9527 56.4135 35.9207 56.4655C35.8887 56.5176 35.8673 56.5755 35.8578 56.6358C35.8482 56.6962 35.8506 56.7578 35.8649 56.8172C35.8792 56.8766 35.9051 56.9326 35.941 56.982C35.9752 57.0296 36.018 57.0704 36.0671 57.1024C47.1921 64.1713 57.2319 66.4735 61.7044 61.978C66.1769 57.4826 63.8785 47.4141 56.8555 36.2357H56.8517Z" fill="#EECC52"/>
<path d="M46.875 17.5278C50.1964 20.8464 53.2824 24.3927 56.1104 28.1407C56.1508 28.1962 56.2041 28.241 56.2658 28.2711C56.3275 28.3013 56.3956 28.3159 56.4642 28.3136C56.5328 28.3113 56.5998 28.2923 56.6594 28.2582C56.7189 28.224 56.7692 28.1758 56.8058 28.1178C63.8862 16.9164 66.154 6.79829 61.6815 2.30284C57.209 -2.19261 47.0775 0.115292 35.8895 7.29693C35.7966 7.35594 35.7306 7.44903 35.7056 7.55619C35.6805 7.66336 35.6986 7.77606 35.7557 7.87009C35.7844 7.91654 35.8221 7.95681 35.8666 7.98854C39.7683 10.8899 43.448 14.0785 46.875 17.5278Z" fill="#25B0BF"/>
<path d="M9.44215 30.3148C11.687 30.2919 52.1575 30.3148 52.1575 30.3148C52.1575 30.3148 52.7651 30.1524 52.36 29.499C49.822 26.2235 47.074 23.1162 44.1334 20.1967C40.4282 16.481 36.4391 13.0597 32.2022 9.96398C23.4214 3.62106 14.9693 0.0178223 8.90529 0.0178223C6.15988 0.0178223 3.91311 0.761014 2.36177 2.31044C-2.40307 7.08674 0.248735 17.8296 8.4525 29.8659C8.57031 30.0133 8.72103 30.131 8.89256 30.2096C9.06409 30.2883 9.25167 30.3256 9.44024 30.3186L9.44215 30.3148Z" fill="white"/>
<path d="M8.72188 34.3422C0.476081 46.4052 -2.19865 57.1997 2.5872 61.9626C4.15956 63.5216 6.40824 64.2686 9.12691 64.2686C15.1737 64.2686 23.6469 60.652 32.4047 54.2861C36.6527 51.2037 40.6435 47.7816 44.3378 44.0534C47.3298 41.0649 50.1292 37.8896 52.7192 34.5467L52.7421 34.5237C52.9198 34.3212 52.8969 33.7595 52.4021 33.7595L9.71153 33.7825C9.51401 33.7971 9.32239 33.8563 9.151 33.9556C8.97961 34.0548 8.8329 34.1916 8.72188 34.3556" fill="#D85D48"/>
</svg>
